<svg width="48" height="48" viewBox="0 0 48 48" fill="none" xmlns="http://www.w3.org/2000/svg">
<rect width="48" height="48" fill="white"/>
<line x1="28" y1="4.5" x2="45" y2="4.5" stroke="black" stroke-opacity="0.06"/>
<line x1="28" y1="8.5" x2="45" y2="8.5" stroke="black" stroke-opacity="0.06"/>
<line x1="28" y1="12.5" x2="45" y2="12.5" stroke="black" stroke-opacity="0.06"/>
<line x1="28" y1="16.5" x2="45" y2="16.5" stroke="black" stroke-opacity="0.06"/>
<line x1="28" y1="20.5" x2="45" y2="20.5" stroke="black" stroke-opacity="0.06"/>
<line x1="28" y1="24.5" x2="45" y2="24.5" stroke="black" stroke-opacity="0.06"/>
<line x1="3" y1="28.5" x2="45" y2="28.5" stroke="black" stroke-opacity="0.06"/>
<line x1="3" y1="32.5" x2="45" y2="32.5" stroke="black" stroke-opacity="0.06"/>
<line x1="3" y1="36.5" x2="45" y2="36.5" stroke="black" stroke-opacity="0.06"/>
<line x1="3" y1="40.5" x2="45" y2="40.5" stroke="black" stroke-opacity="0.06"/>
<line x1="3" y1="44.5" x2="45" y2="44.5" stroke="black" stroke-opacity="0.06"/>
<rect x="3" y="4" width="23" height="21" fill="black" fill-opacity="0.06"/>
<path d="M18 24C18 33.9411 9.94113 42 6.19888e-06 42L0 23L6.19888e-06 6C9.94113 6 18 14.0589 18 24Z" fill="#616161"/>
<path d="M11 18L4 24.5L11 31" stroke="white" stroke-width="2" stroke-linecap="round"/>
<path d="M30 24C30 33.9411 38.0589 42 48 42L48 23L48 6C38.0589 6 30 14.0589 30 24Z" fill="#616161"/>
<path d="M37 18L44 24.5L37 31" stroke="white" stroke-width="2" stroke-linecap="round"/>
</svg>
